<svg width="32" height="32" viewBox="0 0 32 32" fill="none" xmlns="http://www.w3.org/2000/svg">
<path d="M15.9996 14.6667C15.7358 14.6667 15.4781 14.7449 15.2588 14.8914C15.0395 15.0379 14.8686 15.2461 14.7677 15.4898C14.6668 15.7334 14.6404 16.0015 14.6918 16.2601C14.7433 16.5188 14.8703 16.7564 15.0567 16.9428C15.2432 17.1293 15.4808 17.2563 15.7394 17.3077C15.9981 17.3592 16.2662 17.3328 16.5098 17.2319C16.7534 17.1309 16.9617 16.96 17.1082 16.7408C17.2547 16.5215 17.3329 16.2637 17.3329 16C17.3329 15.6464 17.1924 15.3073 16.9424 15.0572C16.6923 14.8072 16.3532 14.6667 15.9996 14.6667ZM26.1596 16L26.3062 15.8134C28.1062 13.3334 28.5329 11.0534 27.5462 9.33335C26.5596 7.61335 24.3462 6.85335 21.3329 7.16002H21.0929C19.8796 4.40002 18.0796 2.66669 15.9996 2.66669C13.9196 2.66669 12.1196 4.40002 10.9196 7.20002L10.6662 7.16002C7.65289 6.85335 5.43955 7.61335 4.45289 9.33335C3.46622 11.0534 3.89289 13.3334 5.69289 15.8134L5.83956 16L5.69289 16.1867C3.89289 18.6667 3.46622 20.9467 4.45289 22.6667C5.33289 24.1334 7.02622 24.9067 9.33289 24.9067C9.74622 24.9067 10.1729 24.9067 10.6662 24.84H10.9062C12.1196 27.6 13.9196 29.3334 15.9996 29.3334C18.0796 29.3334 19.8796 27.6 21.0796 24.8H21.3196C21.7729 24.8 22.1996 24.8667 22.6529 24.8667C25.0129 24.8667 26.7462 24.0934 27.5862 22.6267C28.5729 20.9067 28.1462 18.6267 26.3462 16.1467L26.1596 16ZM6.75955 10.6667C7.09289 10.08 8.09289 9.76002 9.42622 9.76002H10.0796C9.87062 10.5802 9.71474 11.4131 9.61289 12.2534C8.93361 12.7672 8.28785 13.3239 7.67955 13.92C6.66622 12.5867 6.37289 11.3334 6.75955 10.6667ZM6.75955 21.3334C6.37289 20.6667 6.75955 19.4134 7.65289 18.04C8.26119 18.6362 8.90695 19.1929 9.58622 19.7067C9.68809 20.5514 9.84396 21.3886 10.0529 22.2134C8.39956 22.32 7.14622 22 6.75955 21.3334ZM15.9996 5.33335C16.7462 5.33335 17.6396 6.21335 18.3996 7.77335C17.585 8.00977 16.7838 8.29019 15.9996 8.61335C15.2153 8.29019 14.4141 8.00977 13.5996 7.77335C14.3596 6.21335 15.2529 5.33335 15.9996 5.33335ZM15.9996 26.6667C15.2529 26.6667 14.3596 25.7867 13.5996 24.2267C14.4141 23.9903 15.2153 23.7099 15.9996 23.3867C16.7838 23.7099 17.585 23.9903 18.3996 24.2267C17.6396 25.7867 16.7462 26.6667 15.9996 26.6667ZM19.9062 18.2534C19.2929 18.68 18.6662 19.08 17.9996 19.4667C17.3329 19.8534 16.6662 20.2 15.9996 20.5067C15.3329 20.1956 14.6662 19.8489 13.9996 19.4667C13.3329 19.08 12.6662 18.68 12.0929 18.2534C11.9996 17.5334 11.9996 16.7867 11.9996 16C11.9996 15.2134 11.9996 14.4667 12.0929 13.7467C12.7062 13.32 13.3329 12.92 13.9996 12.5334C14.6662 12.1467 15.3329 11.8 15.9996 11.4934C16.6662 11.8045 17.3329 12.1511 17.9996 12.5334C18.6662 12.92 19.3329 13.32 19.9062 13.7467C19.9062 14.4667 19.9996 15.2134 19.9996 16C19.9996 16.7867 19.9996 17.5334 19.9062 18.2534ZM25.2396 21.3334C24.8529 22 23.5996 22.3334 21.9462 22.2134C22.1551 21.3886 22.311 20.5514 22.4129 19.7067C23.0922 19.1929 23.7379 18.6362 24.3462 18.04C25.3329 19.4134 25.6262 20.6667 25.2396 21.3334ZM24.3462 13.96C23.7379 13.3639 23.0922 12.8072 22.4129 12.2934C22.311 11.4531 22.1552 10.6202 21.9462 9.80002H22.5996C23.9329 9.80002 24.9062 10.12 25.2662 10.7067C25.6262 11.2934 25.3329 12.5867 24.3462 13.96Z" fill="white"/>
</svg>
