<svg width="32" height="32" viewBox="0 0 32 32" fill="none" xmlns="http://www.w3.org/2000/svg">
<path d="M19.948 22.5789C19.6878 22.5789 19.4334 22.6561 19.217 22.8007C19.0006 22.9453 18.832 23.1508 18.7324 23.3912C18.6328 23.6316 18.6068 23.8962 18.6575 24.1514C18.7083 24.4067 18.8336 24.6411 19.0176 24.8251C19.2016 25.0092 19.4361 25.1345 19.6913 25.1852C19.9466 25.236 20.2111 25.21 20.4516 25.1104C20.692 25.0108 20.8975 24.8421 21.0421 24.6257C21.1867 24.4094 21.2638 24.155 21.2638 23.8947C21.2638 23.5458 21.1252 23.2111 20.8784 22.9643C20.6317 22.7176 20.297 22.5789 19.948 22.5789ZM12.0533 22.5789H8.10593C7.75696 22.5789 7.42229 22.7176 7.17553 22.9643C6.92877 23.2111 6.79014 23.5458 6.79014 23.8947C6.79014 24.2437 6.92877 24.5784 7.17553 24.8251C7.42229 25.0719 7.75696 25.2105 8.10593 25.2105H12.0533C12.4023 25.2105 12.7369 25.0719 12.9837 24.8251C13.2305 24.5784 13.3691 24.2437 13.3691 23.8947C13.3691 23.5458 13.2305 23.2111 12.9837 22.9643C12.7369 22.7176 12.4023 22.5789 12.0533 22.5789ZM23.8954 22.5789C23.6352 22.5789 23.3808 22.6561 23.1644 22.8007C22.948 22.9453 22.7794 23.1508 22.6798 23.3912C22.5802 23.6316 22.5541 23.8962 22.6049 24.1514C22.6557 24.4067 22.781 24.6411 22.965 24.8251C23.149 25.0092 23.3835 25.1345 23.6387 25.1852C23.8939 25.236 24.1585 25.21 24.3989 25.1104C24.6394 25.0108 24.8449 24.8421 24.9894 24.6257C25.134 24.4094 25.2112 24.155 25.2112 23.8947C25.2112 23.5458 25.0726 23.2111 24.8258 22.9643C24.5791 22.7176 24.2444 22.5789 23.8954 22.5789ZM19.948 14.6842C19.6878 14.6842 19.4334 14.7614 19.217 14.906C19.0006 15.0505 18.832 15.256 18.7324 15.4965C18.6328 15.7369 18.6068 16.0015 18.6575 16.2567C18.7083 16.5119 18.8336 16.7464 19.0176 16.9304C19.2016 17.1144 19.4361 17.2397 19.6913 17.2905C19.9466 17.3413 20.2111 17.3152 20.4516 17.2156C20.692 17.116 20.8975 16.9474 21.0421 16.731C21.1867 16.5146 21.2638 16.2602 21.2638 16C21.2638 15.651 21.1252 15.3164 20.8784 15.0696C20.6317 14.8228 20.297 14.6842 19.948 14.6842ZM12.0533 14.6842H8.10593C7.75696 14.6842 7.42229 14.8228 7.17553 15.0696C6.92877 15.3164 6.79014 15.651 6.79014 16C6.79014 16.349 6.92877 16.6836 7.17553 16.9304C7.42229 17.1772 7.75696 17.3158 8.10593 17.3158H12.0533C12.4023 17.3158 12.7369 17.1772 12.9837 16.9304C13.2305 16.6836 13.3691 16.349 13.3691 16C13.3691 15.651 13.2305 15.3164 12.9837 15.0696C12.7369 14.8228 12.4023 14.6842 12.0533 14.6842ZM23.8954 6.78947C23.6352 6.78947 23.3808 6.86664 23.1644 7.01122C22.948 7.1558 22.7794 7.3613 22.6798 7.60173C22.5802 7.84216 22.5541 8.10672 22.6049 8.36196C22.6557 8.6172 22.781 8.85165 22.965 9.03566C23.149 9.21968 23.3835 9.345 23.6387 9.39577C23.8939 9.44654 24.1585 9.42048 24.3989 9.32089C24.6394 9.2213 24.8449 9.05265 24.9894 8.83627C25.134 8.61989 25.2112 8.3655 25.2112 8.10526C25.2112 7.75629 25.0726 7.42161 24.8258 7.17486C24.5791 6.9281 24.2444 6.78947 23.8954 6.78947ZM23.8954 14.6842C23.6352 14.6842 23.3808 14.7614 23.1644 14.906C22.948 15.0505 22.7794 15.256 22.6798 15.4965C22.5802 15.7369 22.5541 16.0015 22.6049 16.2567C22.6557 16.5119 22.781 16.7464 22.965 16.9304C23.149 17.1144 23.3835 17.2397 23.6387 17.2905C23.8939 17.3413 24.1585 17.3152 24.3989 17.2156C24.6394 17.116 24.8449 16.9474 24.9894 16.731C25.134 16.5146 25.2112 16.2602 25.2112 16C25.2112 15.651 25.0726 15.3164 24.8258 15.0696C24.5791 14.8228 24.2444 14.6842 23.8954 14.6842ZM29.1586 6.78947C29.1586 5.74256 28.7427 4.73853 28.0024 3.99826C27.2621 3.25798 26.2581 2.8421 25.2112 2.8421H6.79014C5.74323 2.8421 4.73921 3.25798 3.99893 3.99826C3.25866 4.73853 2.84277 5.74256 2.84277 6.78947V9.42105C2.84858 10.3948 3.2141 11.3321 3.86909 12.0526C3.2141 12.7732 2.84858 13.7105 2.84277 14.6842V17.3158C2.84858 18.2895 3.2141 19.2268 3.86909 19.9474C3.2141 20.6679 2.84858 21.6052 2.84277 22.5789V25.2105C2.84277 26.2574 3.25866 27.2615 3.99893 28.0017C4.73921 28.742 5.74323 29.1579 6.79014 29.1579H25.2112C26.2581 29.1579 27.2621 28.742 28.0024 28.0017C28.7427 27.2615 29.1586 26.2574 29.1586 25.2105V22.5789C29.1528 21.6052 28.7872 20.6679 28.1322 19.9474C28.7872 19.2268 29.1528 18.2895 29.1586 17.3158V14.6842C29.1528 13.7105 28.7872 12.7732 28.1322 12.0526C28.7872 11.3321 29.1528 10.3948 29.1586 9.42105V6.78947ZM26.527 25.2105C26.527 25.5595 26.3884 25.8942 26.1416 26.1409C25.8948 26.3877 25.5602 26.5263 25.2112 26.5263H6.79014C6.44117 26.5263 6.1065 26.3877 5.85974 26.1409C5.61298 25.8942 5.47435 25.5595 5.47435 25.2105V22.5789C5.47435 22.23 5.61298 21.8953 5.85974 21.6485C6.1065 21.4018 6.44117 21.2632 6.79014 21.2632H25.2112C25.5602 21.2632 25.8948 21.4018 26.1416 21.6485C26.3884 21.8953 26.527 22.23 26.527 22.5789V25.2105ZM26.527 17.3158C26.527 17.6648 26.3884 17.9994 26.1416 18.2462C25.8948 18.4929 25.5602 18.6316 25.2112 18.6316H6.79014C6.44117 18.6316 6.1065 18.4929 5.85974 18.2462C5.61298 17.9994 5.47435 17.6648 5.47435 17.3158V14.6842C5.47435 14.3352 5.61298 14.0006 5.85974 13.7538C6.1065 13.507 6.44117 13.3684 6.79014 13.3684H25.2112C25.5602 13.3684 25.8948 13.507 26.1416 13.7538C26.3884 14.0006 26.527 14.3352 26.527 14.6842V17.3158ZM26.527 9.42105C26.527 9.77002 26.3884 10.1047 26.1416 10.3515C25.8948 10.5982 25.5602 10.7368 25.2112 10.7368H6.79014C6.44117 10.7368 6.1065 10.5982 5.85974 10.3515C5.61298 10.1047 5.47435 9.77002 5.47435 9.42105V6.78947C5.47435 6.4405 5.61298 6.10583 5.85974 5.85907C6.1065 5.61231 6.44117 5.47368 6.79014 5.47368H25.2112C25.5602 5.47368 25.8948 5.61231 26.1416 5.85907C26.3884 6.10583 26.527 6.4405 26.527 6.78947V9.42105ZM19.948 6.78947C19.6878 6.78947 19.4334 6.86664 19.217 7.01122C19.0006 7.1558 18.832 7.3613 18.7324 7.60173C18.6328 7.84216 18.6068 8.10672 18.6575 8.36196C18.7083 8.6172 18.8336 8.85165 19.0176 9.03566C19.2016 9.21968 19.4361 9.345 19.6913 9.39577C19.9466 9.44654 20.2111 9.42048 20.4516 9.32089C20.692 9.2213 20.8975 9.05265 21.0421 8.83627C21.1867 8.61989 21.2638 8.3655 21.2638 8.10526C21.2638 7.75629 21.1252 7.42161 20.8784 7.17486C20.6317 6.9281 20.297 6.78947 19.948 6.78947ZM12.0533 6.78947H8.10593C7.75696 6.78947 7.42229 6.9281 7.17553 7.17486C6.92877 7.42161 6.79014 7.75629 6.79014 8.10526C6.79014 8.45423 6.92877 8.7889 7.17553 9.03566C7.42229 9.28242 7.75696 9.42105 8.10593 9.42105H12.0533C12.4023 9.42105 12.7369 9.28242 12.9837 9.03566C13.2305 8.7889 13.3691 8.45423 13.3691 8.10526C13.3691 7.75629 13.2305 7.42161 12.9837 7.17486C12.7369 6.9281 12.4023 6.78947 12.0533 6.78947Z" fill="white"/>
</svg>
