<svg width="32" height="32" viewBox="0 0 32 32" fill="none" xmlns="http://www.w3.org/2000/svg">
<path d="M26.173 4.86669C26.0181 4.74139 25.8371 4.65239 25.6433 4.60624C25.4495 4.56009 25.2478 4.55797 25.053 4.60002C23.6283 4.89862 22.1575 4.90242 20.7312 4.6112C19.3049 4.31999 17.9533 3.73991 16.7597 2.90669C16.5365 2.75185 16.2713 2.66888 15.9997 2.66888C15.728 2.66888 15.4629 2.75185 15.2397 2.90669C14.046 3.73991 12.6944 4.31999 11.2682 4.6112C9.84189 4.90242 8.3711 4.89862 6.94635 4.60002C6.7516 4.55797 6.5499 4.56009 6.35608 4.60624C6.16226 4.65239 5.98125 4.74139 5.82635 4.86669C5.67165 4.99218 5.54704 5.15074 5.46167 5.33071C5.3763 5.51068 5.33234 5.7075 5.33302 5.90669V15.84C5.33183 17.7517 5.78738 19.636 6.66173 21.336C7.53608 23.036 8.80392 24.5025 10.3597 25.6134L15.2263 29.08C15.4522 29.2408 15.7225 29.3272 15.9997 29.3272C16.2769 29.3272 16.5472 29.2408 16.773 29.08L21.6397 25.6134C23.1954 24.5025 24.4633 23.036 25.3376 21.336C26.212 19.636 26.6675 17.7517 26.6663 15.84V5.90669C26.667 5.7075 26.6231 5.51068 26.5377 5.33071C26.4523 5.15074 26.3277 4.99218 26.173 4.86669ZM23.9997 15.84C24.0007 17.3264 23.6467 18.7915 22.9672 20.1134C22.2877 21.4353 21.3023 22.5758 20.093 23.44L15.9997 26.36L11.9063 23.44C10.6971 22.5758 9.71166 21.4353 9.03215 20.1134C8.35263 18.7915 7.99866 17.3264 7.99968 15.84V7.44002C10.7949 7.67927 13.5944 7.03072 15.9997 5.58669C18.405 7.03072 21.2044 7.67927 23.9997 7.44002V15.84ZM18.053 12.7867L14.4663 16.3867L13.2797 15.1867C13.0286 14.9356 12.6881 14.7946 12.333 14.7946C11.9779 14.7946 11.6374 14.9356 11.3863 15.1867C11.1353 15.4378 10.9942 15.7783 10.9942 16.1334C10.9942 16.4884 11.1353 16.829 11.3863 17.08L13.5197 19.2134C13.6436 19.3383 13.7911 19.4375 13.9536 19.5052C14.1161 19.5729 14.2903 19.6078 14.4663 19.6078C14.6424 19.6078 14.8166 19.5729 14.9791 19.5052C15.1416 19.4375 15.2891 19.3383 15.413 19.2134L19.9997 14.6667C20.2508 14.4156 20.3918 14.0751 20.3918 13.72C20.3918 13.365 20.2508 13.0244 19.9997 12.7734C19.7486 12.5223 19.4081 12.3812 19.053 12.3812C18.6979 12.3812 18.3574 12.5223 18.1063 12.7734L18.053 12.7867Z" fill="white"/>
</svg>
