<?xml version="1.0" encoding="utf-8"?>
<svg version="1.1" id="Слой_1" xmlns="http://www.w3.org/2000/svg" xmlns:xlink="http://www.w3.org/1999/xlink" x="0px" y="0px"
	 viewBox="0 0 192 192" style="enable-background:new 0 0 192 192;" xml:space="preserve">
<style type="text/css">
	.st0{fill-rule:evenodd;clip-rule:evenodd;fill:#fff;}
</style>
<path class="st0" d="M96,2.4c51.7,0,93.6,41.9,93.6,93.6s-41.9,93.6-93.6,93.6S2.4,147.7,2.4,96S44.3,2.4,96,2.4L96,2.4z M95.8,35.7
	c-26,3.1-20.3,41.2,4.6,37.7C124.7,70.1,120.5,32.8,95.8,35.7L95.8,35.7z M112.2,134.6c0-10.4,0-20.8,0-31.2
	c0-17.9,2.5-19.7-11.3-19.7c-5.1,0-10.3,0-15.4,0c-5,0-10.7-1-12.6,2.8c-1,2-1,12-0.5,14.6c1.1,5.3,5.7,4,10.9,4.5l0,29
	c-4.7,0-9.5-0.9-10.7,4.1c-0.5,2.1-0.6,11.9,0,13.8c1.3,4.4,6,3.9,10.9,3.9l29.3,0c4.7,0,9,0.3,10.3-3.9c0.6-1.8,0.6-12.3,0-14.2
	C121.5,133.9,116.7,134.6,112.2,134.6z"/>
</svg>
